<svg width="18" height="20" viewBox="0 0 18 20" fill="none" xmlns="http://www.w3.org/2000/svg">
<path d="M16.5 1.53846H14.25V0.769231C14.25 0.565218 14.171 0.369561 14.0303 0.225302C13.8897 0.0810437 13.6989 0 13.5 0C13.3011 0 13.1103 0.0810437 12.9697 0.225302C12.829 0.369561 12.75 0.565218 12.75 0.769231V1.53846H5.25V0.769231C5.25 0.565218 5.17098 0.369561 5.03033 0.225302C4.88968 0.0810437 4.69891 0 4.5 0C4.30109 0 4.11032 0.0810437 3.96967 0.225302C3.82902 0.369561 3.75 0.565218 3.75 0.769231V1.53846H1.5C1.10218 1.53846 0.720644 1.70055 0.43934 1.98907C0.158035 2.27758 0 2.6689 0 3.07692V18.4615C0 18.8696 0.158035 19.2609 0.43934 19.5494C0.720644 19.8379 1.10218 20 1.5 20H16.5C16.8978 20 17.2794 19.8379 17.5607 19.5494C17.842 19.2609 18 18.8696 18 18.4615V3.07692C18 2.6689 17.842 2.27758 17.5607 1.98907C17.2794 1.70055 16.8978 1.53846 16.5 1.53846ZM3.75 3.07692V3.84615C3.75 4.05017 3.82902 4.24582 3.96967 4.39008C4.11032 4.53434 4.30109 4.61538 4.5 4.61538C4.69891 4.61538 4.88968 4.53434 5.03033 4.39008C5.17098 4.24582 5.25 4.05017 5.25 3.84615V3.07692H12.75V3.84615C12.75 4.05017 12.829 4.24582 12.9697 4.39008C13.1103 4.53434 13.3011 4.61538 13.5 4.61538C13.6989 4.61538 13.8897 4.53434 14.0303 4.39008C14.171 4.24582 14.25 4.05017 14.25 3.84615V3.07692H16.5V6.15385H1.5V3.07692H3.75ZM16.5 18.4615H1.5V7.69231H16.5V18.4615ZM10.125 11.1538C10.125 11.3821 10.059 11.6051 9.9354 11.7949C9.81179 11.9846 9.63609 12.1325 9.43052 12.2199C9.22495 12.3072 8.99875 12.33 8.78052 12.2855C8.56229 12.241 8.36184 12.1311 8.2045 11.9697C8.04717 11.8084 7.94002 11.6028 7.89662 11.379C7.85321 11.1551 7.87549 10.9231 7.96064 10.7123C8.04578 10.5015 8.18998 10.3212 8.37498 10.1945C8.55999 10.0677 8.7775 10 9 10C9.29837 10 9.58452 10.1216 9.79549 10.338C10.0065 10.5543 10.125 10.8478 10.125 11.1538ZM14.25 11.1538C14.25 11.3821 14.184 11.6051 14.0604 11.7949C13.9368 11.9846 13.7611 12.1325 13.5555 12.2199C13.35 12.3072 13.1238 12.33 12.9055 12.2855C12.6873 12.241 12.4868 12.1311 12.3295 11.9697C12.1722 11.8084 12.065 11.6028 12.0216 11.379C11.9782 11.1551 12.0005 10.9231 12.0856 10.7123C12.1708 10.5015 12.315 10.3212 12.5 10.1945C12.685 10.0677 12.9025 10 13.125 10C13.4234 10 13.7095 10.1216 13.9205 10.338C14.1315 10.5543 14.25 10.8478 14.25 11.1538ZM6 15C6 15.2282 5.93402 15.4513 5.8104 15.641C5.68679 15.8308 5.51109 15.9787 5.30552 16.066C5.09995 16.1533 4.87375 16.1762 4.65552 16.1317C4.43729 16.0872 4.23684 15.9773 4.0795 15.8159C3.92217 15.6545 3.81502 15.4489 3.77162 15.2251C3.72821 15.0013 3.75049 14.7693 3.83564 14.5584C3.92078 14.3476 4.06498 14.1674 4.24998 14.0406C4.43499 13.9138 4.6525 13.8462 4.875 13.8462C5.17337 13.8462 5.45952 13.9677 5.6705 14.1841C5.88147 14.4005 6 14.694 6 15ZM10.125 15C10.125 15.2282 10.059 15.4513 9.9354 15.641C9.81179 15.8308 9.63609 15.9787 9.43052 16.066C9.22495 16.1533 8.99875 16.1762 8.78052 16.1317C8.56229 16.0872 8.36184 15.9773 8.2045 15.8159C8.04717 15.6545 7.94002 15.4489 7.89662 15.2251C7.85321 15.0013 7.87549 14.7693 7.96064 14.5584C8.04578 14.3476 8.18998 14.1674 8.37498 14.0406C8.55999 13.9138 8.7775 13.8462 9 13.8462C9.29837 13.8462 9.58452 13.9677 9.79549 14.1841C10.0065 14.4005 10.125 14.694 10.125 15ZM14.25 15C14.25 15.2282 14.184 15.4513 14.0604 15.641C13.9368 15.8308 13.7611 15.9787 13.5555 16.066C13.35 16.1533 13.1238 16.1762 12.9055 16.1317C12.6873 16.0872 12.4868 15.9773 12.3295 15.8159C12.1722 15.6545 12.065 15.4489 12.0216 15.2251C11.9782 15.0013 12.0005 14.7693 12.0856 14.5584C12.1708 14.3476 12.315 14.1674 12.5 14.0406C12.685 13.9138 12.9025 13.8462 13.125 13.8462C13.4234 13.8462 13.7095 13.9677 13.9205 14.1841C14.1315 14.4005 14.25 14.694 14.25 15Z" fill="currentColor"/>
</svg>
