<svg width="11" height="20" viewBox="0 0 11 20" fill="none" xmlns="http://www.w3.org/2000/svg">
<path d="M10.6431 10.6431L1.5527 19.7336C1.46824 19.8181 1.36797 19.8851 1.25762 19.9308C1.14727 19.9765 1.02899 20 0.90955 20C0.790106 20 0.671832 19.9765 0.56148 19.9308C0.451129 19.8851 0.35086 19.8181 0.266401 19.7336C0.181941 19.6491 0.114944 19.5489 0.069235 19.4385C0.0235258 19.3282 0 19.2099 0 19.0904C0 18.971 0.0235258 18.8527 0.069235 18.7424C0.114944 18.632 0.181941 18.5318 0.266401 18.4473L8.71484 10L0.266401 1.5527C0.0958268 1.38213 -1.79729e-09 1.15078 0 0.90955C1.79729e-09 0.668323 0.0958268 0.436975 0.266401 0.266401C0.436974 0.0958273 0.668323 1.79729e-09 0.90955 0C1.15078 -1.79729e-09 1.38213 0.0958273 1.5527 0.266401L10.6431 9.35685C10.7277 9.44128 10.7947 9.54153 10.8405 9.65189C10.8862 9.76225 10.9098 9.88054 10.9098 10C10.9098 10.1195 10.8862 10.2378 10.8405 10.3481C10.7947 10.4585 10.7277 10.5587 10.6431 10.6431Z" fill="currentColor"/>
</svg>
