<svg width="20" height="20" viewBox="0 0 20 20" fill="none" xmlns="http://www.w3.org/2000/svg">
<path d="M14.7563 6.91042C14.8337 6.98781 14.8952 7.07972 14.9371 7.18088C14.9791 7.28205 15.0007 7.39049 15.0007 7.5C15.0007 7.60951 14.9791 7.71795 14.9371 7.81912C14.8952 7.92028 14.8337 8.01219 14.7563 8.08958L8.92292 13.9229C8.84552 14.0004 8.75362 14.0619 8.65245 14.1038C8.55128 14.1457 8.44285 14.1673 8.33333 14.1673C8.22382 14.1673 8.11538 14.1457 8.01422 14.1038C7.91305 14.0619 7.82114 14.0004 7.74375 13.9229L5.24375 11.4229C5.08738 11.2665 4.99954 11.0545 4.99954 10.8333C4.99954 10.6122 5.08738 10.4001 5.24375 10.2437C5.40012 10.0874 5.6122 9.99954 5.83333 9.99954C6.05447 9.99954 6.26655 10.0874 6.42292 10.2437L8.33333 12.1552L13.5771 6.91042C13.6545 6.83294 13.7464 6.77147 13.8475 6.72953C13.9487 6.6876 14.0572 6.66601 14.1667 6.66601C14.2762 6.66601 14.3846 6.6876 14.4858 6.72953C14.5869 6.77147 14.6789 6.83294 14.7563 6.91042ZM20 1.66667V18.3333C20 18.7754 19.8244 19.1993 19.5118 19.5118C19.1993 19.8244 18.7754 20 18.3333 20H1.66667C1.22464 20 0.800716 19.8244 0.488155 19.5118C0.175595 19.1993 0 18.7754 0 18.3333V1.66667C0 1.22464 0.175595 0.800716 0.488155 0.488155C0.800716 0.175595 1.22464 0 1.66667 0H18.3333C18.7754 0 19.1993 0.175595 19.5118 0.488155C19.8244 0.800716 20 1.22464 20 1.66667ZM18.3333 18.3333V1.66667H1.66667V18.3333H18.3333Z" fill="currentColor"/>
</svg>
